<?xml version="1.0" standalone="no"?>
<!DOCTYPE svg PUBLIC "-//W3C//DTD SVG 20010904//EN"
 "http://www.w3.org/TR/2001/REC-SVG-20010904/DTD/svg10.dtd">
<svg version="1.0" xmlns="http://www.w3.org/2000/svg"
 width="500.000000pt" height="500.000000pt" viewBox="0 0 500.000000 500.000000"
 preserveAspectRatio="xMidYMid meet">
<metadata>
Created by potrace 1.14, written by Peter Selinger 2001-2017
</metadata>
<g transform="translate(0.000000,500.000000) scale(0.100000,-0.100000)"
fill="#000000" stroke="none">
<path d="M2116 3763 c-4 -4 -19 -8 -34 -9 -15 -1 -51 -5 -80 -8 -40 -4 -51 -2
-46 7 4 7 -4 2 -17 -9 -13 -12 -30 -19 -38 -16 -9 3 -11 0 -6 -8 6 -10 4 -11
-6 -4 -20 12 -39 14 -39 3 0 -11 -23 -7 -32 6 -5 6 -8 5 -8 -3 0 -7 -4 -10
-10 -7 -5 3 -10 1 -10 -6 0 -7 -3 -9 -7 -6 -3 4 -13 1 -21 -6 -13 -9 -14 -9
-8 1 11 18 -5 15 -21 -5 -10 -12 -12 -13 -8 -3 4 9 0 7 -9 -4 -8 -10 -19 -15
-24 -12 -6 3 -13 -1 -16 -9 -5 -13 -10 -14 -28 -4 -13 6 -20 8 -16 4 10 -11
-29 -38 -42 -30 -6 3 -10 1 -10 -5 0 -6 -5 -8 -12 -4 -10 6 -10 5 -1 -7 10
-12 7 -14 -15 -13 -15 1 -35 -5 -44 -14 -10 -8 -18 -12 -18 -8 0 4 -10 1 -22
-6 -23 -12 -29 -14 -49 -17 -5 0 -7 -5 -4 -11 4 -6 -1 -7 -11 -3 -14 5 -16 3
-11 -12 6 -14 5 -16 -7 -6 -11 9 -15 8 -19 -4 -4 -8 -13 -12 -22 -9 -9 4 -15
1 -15 -8 0 -15 -48 -43 -58 -34 -2 3 -14 0 -26 -6 -11 -7 -25 -11 -29 -10 -5
1 -6 -2 -2 -8 5 -8 12 -7 23 2 12 10 12 7 -2 -14 -10 -16 -23 -28 -28 -28 -5
0 -6 -5 -2 -12 4 -6 3 -8 -3 -5 -6 4 -13 1 -16 -7 -3 -8 -18 -13 -35 -12 -23
1 -28 -2 -24 -13 3 -9 1 -12 -6 -7 -7 4 -12 2 -12 -4 0 -7 -6 -8 -17 -2 -21
11 -46 5 -37 -9 3 -5 -6 -9 -20 -9 -14 0 -26 -5 -26 -11 0 -5 4 -8 9 -4 5 3
13 0 17 -6 5 -8 3 -9 -6 -4 -10 6 -12 4 -7 -8 3 -10 2 -17 -2 -17 -5 0 -11 5
-13 12 -3 7 -13 2 -28 -13 -12 -13 -20 -18 -16 -11 4 6 3 12 -2 12 -6 0 -13
-12 -17 -27 -5 -22 -8 -24 -17 -12 -8 11 -9 9 -5 -7 2 -12 0 -28 -5 -35 -7
-11 -8 -10 -4 4 5 15 2 17 -15 12 -14 -5 -25 -2 -30 6 -6 10 -8 8 -7 -8 2 -14
7 -19 18 -16 12 4 11 1 -2 -10 -10 -8 -18 -19 -18 -26 0 -10 -14 -15 -33 -12
-4 1 0 -10 9 -24 9 -14 14 -28 11 -31 -3 -3 -8 4 -12 15 -3 12 -11 21 -16 21
-6 0 -8 -4 -5 -8 3 -5 -2 -19 -11 -31 -12 -18 -17 -20 -24 -10 -5 8 -9 9 -9 3
0 -6 3 -14 7 -18 7 -6 13 -29 15 -53 1 -7 6 -13 12 -13 6 -1 0 -7 -14 -15
l-25 -14 33 4 c19 2 30 0 26 -6 -3 -5 -9 -7 -14 -4 -5 3 -12 1 -15 -5 -4 -6
-3 -10 2 -9 19 3 30 -2 30 -16 0 -11 -4 -12 -14 -3 -11 9 -12 7 -6 -8 6 -17 5
-18 -11 -5 -16 13 -17 13 -14 -5 1 -10 8 -23 13 -27 6 -5 3 -7 -7 -3 -11 3
-18 0 -18 -8 0 -8 -7 -16 -15 -20 -8 -3 -15 0 -15 7 0 8 -3 8 -9 -2 -5 -8 -16
-11 -24 -8 -9 3 -18 -1 -21 -9 -5 -12 11 -19 37 -15 4 0 7 -6 7 -15 0 -9 5
-12 12 -8 7 4 8 3 4 -5 -6 -9 -11 -9 -24 1 -14 11 -15 10 -9 -6 6 -15 4 -17
-13 -13 -10 3 -18 2 -17 -2 1 -3 -2 -6 -6 -6 -5 0 -15 -11 -22 -25 -9 -16 -15
-19 -15 -10 -1 9 -5 5 -11 -8 -5 -13 -13 -21 -18 -17 -6 3 -25 -8 -44 -25 -27
-23 -35 -37 -33 -60 1 -16 -1 -27 -5 -24 -4 2 -10 -2 -13 -8 -3 -7 -3 -2 0 12
l5 25 -14 -23 c-7 -12 -17 -19 -21 -15 -5 4 -3 -3 4 -17 13 -24 12 -24 -5 -10
-17 14 -18 14 -6 -7 9 -19 9 -22 -3 -17 -8 3 -17 0 -21 -5 -3 -6 -10 -9 -14
-7 -3 3 -7 -4 -7 -14 0 -10 5 -16 11 -13 5 2 -1 -5 -15 -16 -14 -11 -21 -21
-17 -21 4 0 2 -10 -5 -22 -7 -13 -11 -26 -10 -30 1 -5 -6 -8 -15 -8 -15 0 -14
-2 3 -14 19 -14 19 -14 -1 -13 -11 1 -19 -3 -17 -10 1 -7 -2 -13 -7 -13 -5 0
-12 -7 -15 -16 -6 -15 -4 -15 11 -3 10 7 8 2 -5 -12 -12 -14 -19 -28 -16 -32
4 -4 1 -14 -6 -23 -12 -13 -11 -17 1 -25 9 -6 10 -9 2 -9 -7 0 -10 -7 -6 -17
4 -10 2 -14 -4 -10 -5 3 -10 0 -10 -8 0 -8 3 -12 7 -10 4 2 7 -2 7 -10 0 -8
-4 -12 -8 -10 -11 7 -16 -63 -6 -81 7 -13 6 -15 -3 -9 -10 6 -12 4 -7 -9 4
-10 3 -15 -3 -11 -6 3 -10 2 -10 -4 0 -7 -36 -21 -70 -26 -3 0 -11 -4 -17 -8
-7 -5 -13 -6 -13 -3 0 3 -11 1 -26 -4 -14 -6 -39 -12 -57 -15 -18 -3 -49 -13
-69 -22 l-38 -17 0 -235 0 -236 30 0 c17 0 30 2 30 5 0 3 79 6 176 7 171 1
246 7 265 18 5 4 9 3 9 -2 0 -4 59 -9 132 -11 72 -1 141 -4 152 -7 51 -10 74
-14 119 -19 27 -3 53 -8 58 -12 5 -3 22 -8 37 -11 39 -7 56 -11 62 -14 3 -1
10 -3 15 -4 6 -1 17 -5 25 -8 8 -4 24 -8 35 -10 11 -2 28 -7 37 -11 9 -4 21
-5 26 -2 5 3 21 -1 36 -9 18 -10 25 -10 20 -2 -5 9 -3 9 7 0 7 -7 23 -13 36
-13 13 0 23 -4 23 -9 0 -6 9 -8 19 -6 11 2 25 -3 32 -11 8 -10 15 -11 24 -4 9
7 16 6 24 -3 6 -8 22 -13 36 -11 14 1 25 -3 25 -9 0 -7 5 -5 10 3 7 11 10 11
10 2 0 -7 5 -10 11 -7 5 4 19 -1 29 -10 12 -11 20 -13 25 -5 3 5 10 8 14 6 56
-35 1535 -40 1569 -6 1 1 5 3 10 4 50 13 87 28 111 45 16 12 31 21 34 21 2 0
22 8 43 17 22 9 42 16 47 15 4 -1 7 2 7 7 0 5 10 12 23 16 32 11 37 12 40 15
9 7 148 30 200 33 15 1 27 4 27 7 0 3 19 4 42 3 24 -1 43 -2 43 -3 0 -2 337
-20 465 -25 97 -3 303 -17 322 -20 18 -4 164 -7 244 -6 47 1 71 17 78 51 3 14
8 36 11 50 11 44 14 200 4 200 -5 0 -8 3 -7 8 4 15 -14 52 -23 47 -5 -4 -9 -2
-9 4 0 6 -26 30 -57 53 -32 24 -62 48 -68 54 -40 45 -186 117 -265 130 -14 3
-42 11 -63 19 -20 8 -39 15 -42 15 -3 0 -7 1 -10 1 -3 1 -9 3 -15 4 -5 1 -12
4 -15 5 -3 1 -8 3 -12 5 -5 1 -21 7 -38 14 -16 7 -38 14 -47 16 -9 2 -26 9
-38 15 -25 13 -130 21 -130 10 0 -7 -25 -5 -78 6 -16 3 -22 10 -18 19 3 9 -1
15 -10 15 -11 0 -14 6 -10 16 4 10 2 13 -6 8 -7 -5 -9 -2 -5 9 7 17 -15 41
-28 29 -5 -4 -5 -1 0 7 5 9 3 18 -6 25 -20 16 -47 51 -31 42 7 -4 12 -1 12 9
0 9 -4 14 -9 11 -5 -3 -8 2 -7 12 0 10 -5 16 -13 14 -11 -2 -12 0 -3 11 9 10
7 17 -6 28 -10 9 -24 13 -31 11 -8 -3 -11 0 -8 5 3 5 0 22 -8 37 -13 25 -13
28 8 36 l22 9 -23 0 c-13 1 -20 5 -17 11 3 6 1 10 -5 10 -6 0 -8 5 -5 10 3 6
-4 10 -17 11 -13 0 -17 3 -10 6 19 7 14 26 -5 19 -15 -5 -15 -4 1 9 11 8 14
15 8 15 -7 0 -12 5 -12 11 0 5 5 7 12 3 7 -4 8 -3 4 5 -4 6 -12 9 -17 6 -5 -4
-9 -1 -9 5 0 6 -6 8 -12 4 -7 -4 -10 -4 -6 0 3 4 0 19 -8 34 -10 19 -10 29 -2
40 6 7 7 12 2 11 -5 -1 -12 0 -16 1 -16 5 -28 8 -44 9 -8 0 -12 6 -8 12 4 8
-1 9 -17 4 -21 -7 -22 -6 -10 9 7 9 10 16 6 16 -4 0 -1 8 6 18 7 9 9 14 5 10
-5 -4 -14 -3 -21 2 -8 7 -12 5 -12 -5 0 -8 3 -12 7 -10 4 2 7 -2 7 -10 0 -10
-4 -12 -12 -5 -7 6 -12 28 -11 49 1 22 -1 38 -5 35 -4 -2 -10 0 -13 5 -4 5 -2
12 4 16 5 3 10 13 10 21 0 8 -4 13 -9 9 -5 -3 -13 0 -17 6 -4 8 -3 9 4 5 7 -4
12 -2 12 4 0 6 4 9 9 5 5 -3 13 0 17 6 4 8 3 9 -4 5 -7 -4 -12 -1 -12 8 0 8 6
17 13 19 9 4 9 6 -1 6 -7 1 -11 5 -8 9 3 5 -2 9 -10 9 -8 0 -13 -6 -10 -12 2
-7 -5 -11 -17 -10 -11 1 -23 7 -25 15 -3 7 1 11 9 8 8 -3 19 1 26 8 15 15 17
28 4 19 -5 -3 -13 0 -17 6 -4 7 -3 9 3 6 6 -4 13 2 16 13 6 25 -3 33 -21 17
-13 -10 -14 -9 -8 1 6 9 1 12 -16 9 -12 -2 -17 -2 -10 0 6 3 12 9 12 14 0 5
-6 9 -12 9 -9 0 -9 3 1 9 12 8 12 14 3 33 -7 13 -10 15 -8 5 5 -16 4 -16 -19
-1 -23 15 -37 32 -15 19 6 -3 10 -2 10 4 0 5 -8 12 -18 15 -9 3 -23 16 -31 28
-13 22 -13 23 6 6 11 -10 23 -18 28 -18 4 0 -14 17 -41 37 -27 21 -53 37 -58
35 -5 -2 -3 5 4 15 8 10 11 15 6 11 -9 -8 -30 9 -39 32 -3 9 -6 10 -6 3 -1 -7
-6 -13 -12 -13 -6 0 -9 7 -5 15 3 8 0 14 -7 12 -7 -1 -11 3 -10 10 2 7 -6 10
-18 8 -17 -3 -19 -1 -9 10 9 11 6 13 -15 11 -14 -2 -24 -1 -21 1 2 3 -5 16
-16 29 -17 19 -24 21 -35 12 -8 -6 -13 -7 -12 -2 1 5 1 16 0 24 -1 12 -3 12
-10 2 -6 -10 -11 -5 -20 17 -9 21 -18 28 -29 24 -8 -4 -13 -2 -9 3 3 6 -3 16
-15 23 -11 7 -17 8 -13 2 3 -6 4 -11 0 -11 -3 0 -10 11 -15 25 -5 14 -15 25
-22 25 -9 0 -9 -3 2 -11 13 -9 13 -10 0 -6 -8 2 -14 11 -14 20 1 10 -5 14 -18
12 -16 -3 -18 -1 -8 10 9 11 6 16 -12 25 -22 11 -22 10 -4 -4 11 -9 15 -16 8
-16 -6 0 -18 10 -26 22 -11 15 -16 18 -16 8 0 -13 -1 -13 -9 0 -6 8 -7 18 -4
24 3 5 1 6 -5 2 -6 -3 -14 -1 -17 5 -4 5 -13 8 -21 5 -8 -3 -14 -1 -14 5 0 6
-4 7 -10 4 -5 -3 -10 0 -10 8 0 18 -24 29 -37 16 -6 -6 -17 -1 -30 11 -15 14
-23 16 -26 7 -4 -9 -6 -9 -6 1 -1 6 -6 12 -12 12 -5 0 -7 -5 -4 -11 8 -13 -37
12 -47 26 -5 6 -8 4 -8 -5 0 -13 -1 -13 -10 0 -9 13 -11 13 -20 0 -6 -10 -10
-11 -10 -2 0 6 -10 12 -23 12 -13 0 -28 5 -35 12 -9 9 -13 7 -18 -6 -6 -15 -9
-15 -29 -2 -13 8 -27 11 -35 6 -16 -10 -41 -2 -59 19 -12 14 -13 13 -8 -7 5
-20 3 -21 -10 -11 -18 16 -45 21 -37 8 6 -11 6 -11 -34 0 -18 6 -30 6 -27 1 3
-4 -2 -10 -10 -14 -8 -3 -15 -1 -15 5 0 6 -4 8 -9 4 -5 -3 -12 -1 -16 5 -4 7
-12 7 -24 0 -10 -5 -21 -6 -25 -3 -3 3 -6 0 -6 -8 0 -11 -2 -11 -10 1 -5 8
-10 12 -10 8 0 -4 -13 -3 -30 2 -19 5 -30 5 -30 -1 0 -6 -7 -3 -16 5 -18 18
-18 18 -28 9z m174 -23 c0 -5 -5 -10 -11 -10 -5 0 -7 5 -4 10 3 6 8 10 11 10
2 0 4 -4 4 -10z m-347 -15 c-3 -9 -8 -14 -10 -11 -3 3 -2 9 2 15 9 16 15 13 8
-4z m-665 -280 c-3 -3 -9 2 -12 12 -6 14 -5 15 5 6 7 -7 10 -15 7 -18z m-451
-358 c0 -8 -6 -14 -14 -14 -9 0 -10 4 -2 14 6 7 12 13 14 13 1 0 2 -6 2 -13z
m-3 -73 c9 -24 2 -26 -12 -4 -7 11 -8 20 -3 20 5 0 12 -7 15 -16z m2873 -324
c1 -11 -2 -20 -7 -20 -6 0 -7 17 -1 38 3 8 7 -1 8 -18z m-3094 3 c-7 -2 -13
-9 -13 -14 0 -6 6 -7 13 -3 7 4 9 3 4 -2 -5 -5 -18 -9 -30 -9 -13 -1 -21 -6
-19 -14 1 -7 -2 -10 -9 -5 -14 8 34 55 54 53 9 0 9 -2 0 -6z m3257 -299 c0 -2
-7 -4 -15 -4 -8 0 -15 4 -15 10 0 5 7 7 15 4 8 -4 15 -8 15 -10z"/>
<path d="M1171 3406 c-9 -11 -9 -16 1 -22 7 -4 10 -4 6 1 -4 4 -3 14 3 22 6 7
9 13 6 13 -2 0 -10 -6 -16 -14z"/>
<path d="M3400 3266 c0 -2 8 -10 18 -17 15 -13 16 -12 3 4 -13 16 -21 21 -21
13z"/>
<path d="M740 2909 c-11 -8 -9 -9 10 -4 20 6 23 5 13 -6 -7 -7 -13 -17 -13
-23 0 -5 6 -1 14 9 22 30 6 45 -24 24z"/>
<path d="M3590 2875 c-11 -13 -10 -14 4 -9 9 3 16 10 16 15 0 13 -6 11 -20 -6z"/>
<path d="M3811 2473 c7 -12 15 -20 18 -17 3 2 -3 12 -13 22 -17 16 -18 16 -5
-5z"/>
<path d="M3895 2310 c3 -5 8 -10 11 -10 2 0 4 5 4 10 0 6 -5 10 -11 10 -5 0
-7 -4 -4 -10z"/>
</g>
</svg>
